<?xml version="1.0" encoding="UTF-8"?>
<svg width="398px" height="377px" viewBox="0 0 398 377" version="1.1"
    xmlns="http://www.w3.org/2000/svg"
    xmlns:xlink="http://www.w3.org/1999/xlink">
    <!-- Generator: Sketch 49.3 (51167) - http://www.bohemiancoding.com/sketch -->
    <title>Page 1</title>
    <desc>Created with Sketch.</desc>
    <defs>
        <polygon id="path-1" points="0.0002 0.8222 397.172 0.8222 397.172 163 0.0002 163"></polygon>
    </defs>
    <g id="Page-1" stroke="none" stroke-width="1" fill="none" fill-rule="evenodd">
        <g>
            <path d="M200.7601,339.9398 L200.7601,338.4348 C154.3921,338.4338 112.4271,319.6448 82.0391,289.2598 C51.6551,258.8718 32.8641,216.9068 32.8641,170.5388 C32.8641,124.1708 51.6551,82.2068 82.0391,51.8178 C112.4271,21.4338 154.3921,2.6438 200.7601,2.6438 C247.1281,2.6438 289.0931,21.4338 319.4811,51.8178 C349.8661,82.2068 368.6551,124.1708 368.6561,170.5388 C368.6561,216.9068 349.8661,258.8718 319.4811,289.2598 C289.0931,319.6448 247.1281,338.4338 200.7601,338.4348 L200.7601,339.9398" id="Fill-1" fill="#231F20"></path>
            <path d="M200.0403,5.2851 C109.1763,5.2851 35.2533,79.2081 35.2533,170.0721 C35.2533,260.9351 109.1763,334.8581 200.0403,334.8581 C290.9033,334.8581 364.8263,260.9351 364.8263,170.0721 C364.8263,79.2081 290.9033,5.2851 200.0403,5.2851 M200.0403,340.1431 C106.2623,340.1431 29.9683,263.8491 29.9683,170.0721 C29.9683,76.2941 106.2623,0.0001 200.0403,0.0001 C293.8173,0.0001 370.1113,76.2941 370.1113,170.0721 C370.1113,263.8491 293.8173,340.1431 200.0403,340.1431" id="Fill-3" fill="#FEFEFE"></path>
            <path d="M200.7601,283.3314 L200.7601,282.3314 C169.9561,282.3304 142.0771,269.8494 121.8891,249.6624 C101.7031,229.4754 89.2201,201.5964 89.2201,170.7914 C89.2201,139.9874 101.7031,112.1084 121.8891,91.9204 C142.0771,71.7344 169.9561,59.2514 200.7601,59.2514 C231.5651,59.2514 259.4441,71.7344 279.6311,91.9204 C299.8181,112.1084 312.2991,139.9874 312.3001,170.7914 C312.3001,201.5964 299.8181,229.4754 279.6311,249.6624 C259.4441,269.8494 231.5651,282.3304 200.7601,282.3314 L200.7601,283.3314" id="Fill-7" fill="#FEFEFE"></path>
            <path d="M314.1683,81.8998 C314.3913,81.7258 314.6143,81.5328 314.8393,81.3218 C315.0633,81.1108 315.3803,80.7998 315.7903,80.3898 C317.5053,78.6748 318.7233,77.0398 319.4433,75.4868 C320.1653,73.9328 320.4203,72.3788 320.2093,70.8258 C320.0223,69.3468 319.3453,67.7488 318.1763,66.0338 C317.0083,64.3188 314.9003,61.9388 311.8553,58.8928 L302.3853,49.4218 C297.4263,44.4628 293.2153,41.8248 289.7543,41.5078 C286.2923,41.1908 282.5723,43.0208 278.5963,46.9988 L271.0253,54.5678 C269.0623,56.5318 267.6913,58.4118 266.9153,60.2078 C266.1383,62.0038 265.8673,63.9028 266.1043,65.9038 C266.3273,67.6188 266.9683,69.3148 268.0233,70.9928 C269.0813,72.6708 271.0573,74.9578 273.9523,77.8538 L283.4243,87.3248 C286.3453,90.2458 288.7033,92.3188 290.5003,93.5428 C292.2963,94.7668 293.9823,95.4978 295.5613,95.7338 C297.2143,95.9948 298.8433,95.7708 300.4453,95.0628 C302.0503,94.3538 303.7393,93.1108 305.5173,91.3338 C305.9153,90.9358 306.4993,90.3148 307.2703,89.4688 C307.3563,89.3578 307.4193,89.2828 307.4563,89.2458 L298.8603,80.6508 L298.5633,80.9488 C297.0963,82.4158 295.6733,82.9998 294.2943,82.7018 C292.9143,82.4028 290.8753,80.9048 288.1783,78.2088 L283.2573,73.2868 C280.5343,70.5648 279.0863,68.3708 278.9113,66.7048 C278.7373,65.0398 279.6513,63.2068 281.6523,61.2048 L285.5123,57.3458 C287.7503,55.1088 289.6323,54.0518 291.1603,54.1768 C292.6893,54.3008 294.9083,55.8168 297.8163,58.7258 L304.6043,65.5118 C306.1563,67.0658 307.0403,68.4508 307.2513,69.6698 C307.4623,70.8878 307.0263,72.0368 305.9453,73.1188 L305.6663,73.3978 L314.1683,81.8998 Z" id="Fill-9" fill="#FEFEFE"></path>
            <polygon id="Fill-11" fill="#FEFEFE" points="80.742 86.0316 111.896 94.4396 117.433 88.9026 109.118 57.6556 128.899 77.4366 137.102 69.2336 109.342 41.4726 96.999 53.8146 104.271 81.2216 77.032 73.7826 64.522 86.2926 92.283 114.0536 100.523 105.8126"></polygon>
            <polygon id="Fill-13" fill="#FEFEFE" points="185.0115 12.392 171.9335 12.392 192.6845 51.652 207.2115 51.652 228.1465 12.392 215.4115 12.392 199.7505 40.578"></polygon>
            <g id="Group-17" transform="translate(0.000000, 213.420000)">
                <mask id="mask-2" fill="white">
                    <use xlink:href="#path-1"></use>
                </mask>
                <g id="Clip-16"></g>
                <path d="M36.1502,31.8802 L32.4912,21.2822 L13.8612,22.1962 L29.0852,11.4202 L25.4262,0.8222 L0.0002,9.6032 L2.5362,16.9462 L18.6942,11.3682 L4.0942,21.4592 L6.6422,28.8382 L24.1362,27.8082 L8.1882,33.3152 L10.7242,40.6592 L36.1502,31.8802 Z M48.9702,53.9602 L42.9592,43.9322 L15.7982,50.9372 L20.1922,58.2682 L24.7552,56.9572 L28.8062,63.7172 L25.4992,67.1232 L29.8932,74.4542 L48.9702,53.9602 Z M30.7082,55.1572 L40.6592,52.0402 L33.2372,59.3782 L30.7082,55.1572 Z M54.8042,95.7652 C55.9662,94.7702 56.6742,93.7582 56.9292,92.7282 C57.1842,91.6972 57.0212,90.5222 56.4422,89.1992 C58.7612,90.6562 61.1192,90.3592 63.5182,88.3062 L65.1492,86.9112 C67.3602,85.0192 68.3102,83.0372 67.9992,80.9662 C67.7052,79.1062 66.2282,76.6202 63.5662,73.5102 L56.2762,64.9922 L35.8392,82.4832 L41.0122,88.5252 L46.8312,83.5462 L49.1892,86.3012 C49.8622,87.0882 50.1872,87.7522 50.1622,88.2922 C50.1382,88.8332 49.7502,89.4242 49.0012,90.0652 L45.1502,93.3602 L50.4192,99.5182 L54.8042,95.7652 Z M56.0142,83.2892 C55.4952,83.2172 54.9002,82.7892 54.2312,82.0072 L51.8632,79.2392 L56.5012,75.2702 L58.8692,78.0372 C59.5542,78.8382 59.8842,79.5002 59.8582,80.0232 C59.8322,80.5462 59.4422,81.1302 58.6872,81.7752 L57.9242,82.4292 C57.1692,83.0742 56.5332,83.3602 56.0142,83.2892 Z M81.7652,92.0282 L75.8562,86.5942 L57.6452,106.3912 L63.5542,111.8272 L81.7652,92.0282 Z M92.6652,125.9482 L81.8872,118.1862 L84.3732,114.7332 L94.6122,122.1072 L97.9852,117.4232 L87.7472,110.0502 L89.9952,106.9272 L100.5342,114.5172 L104.3392,109.2332 L87.3462,96.9942 L71.6262,118.8202 L88.8602,131.2332 L92.6652,125.9482 Z M128.7242,122.0192 L109.2342,112.1862 L106.3012,118.0002 L112.4782,121.1172 L103.2952,139.3182 L110.4632,142.9352 L119.6472,124.7332 L125.7912,127.8332 L128.7242,122.0192 Z M153.3492,130.5362 L132.6282,123.6662 L130.5792,129.8482 L137.1462,132.0252 L130.7312,151.3762 L138.3522,153.9022 L144.7672,134.5512 L151.3002,136.7172 L153.3492,130.5362 Z M176.4372,134.8122 L164.8902,132.9742 L152.8042,158.2872 L161.2452,159.6312 L163.1722,155.2922 L170.9552,156.5312 L171.4392,161.2552 L179.8802,162.5992 L176.4372,134.8122 Z M165.6192,149.5742 L169.6252,139.9462 L170.4782,150.3492 L165.6192,149.5742 Z M216.8552,135.4042 L213.0282,154.9952 L206.7782,136.1072 L198.3262,136.6962 L207.8012,163.0002 L219.2792,162.1992 L225.2712,134.8182 L216.8552,135.4042 Z M255.9712,148.6912 L243.0482,151.7602 L242.0652,147.6202 L254.3412,144.7052 L253.0072,139.0892 L240.7312,142.0042 L239.8432,138.2602 L252.4782,135.2602 L250.9742,128.9242 L230.5982,133.7622 L236.8122,159.9332 L257.4762,155.0262 L255.9712,148.6912 Z M276.5802,119.0622 L256.3202,127.1942 L258.7472,133.2372 L265.1682,130.6602 L272.7632,149.5802 L280.2142,146.5892 L272.6192,127.6692 L279.0062,125.1052 L276.5802,119.0622 Z M319.0792,111.5342 L312.4222,116.0902 L312.9652,116.8832 C313.6762,117.9222 313.9512,118.7722 313.7922,119.4342 C313.6322,120.0972 313.0132,120.7972 311.9342,121.5352 C310.6512,122.4122 309.6322,122.6922 308.8762,122.3722 C308.2832,122.1202 307.4522,121.2102 306.3802,119.6422 L303.9352,116.0692 C302.8612,114.5022 302.3162,113.3442 302.2972,112.5952 C302.2762,111.8462 302.8982,111.0402 304.1612,110.1762 C305.1982,109.4662 306.0502,109.1372 306.7142,109.1912 C307.3792,109.2442 308.0172,109.7192 308.6302,110.6132 L309.1102,111.3172 L315.6452,106.8452 L315.1442,106.1112 C313.1092,103.1402 311.0492,101.4942 308.9622,101.1742 C306.8742,100.8542 304.2132,101.8012 300.9762,104.0162 L299.3272,105.1452 C296.0502,107.3882 294.2282,109.6282 293.8612,111.8652 C293.4962,114.1052 294.4622,116.9022 296.7612,120.2622 L299.8532,124.7802 C302.1662,128.1602 304.4312,130.0852 306.6502,130.5532 C308.8702,131.0232 311.6182,130.1362 314.8952,127.8922 L316.9102,126.5132 C319.9022,124.4652 321.6212,122.3482 322.0672,120.1602 C322.5132,117.9722 321.7262,115.4012 319.7052,112.4492 L319.0792,111.5342 Z M343.3172,94.8372 L334.5652,103.0832 L320.7882,88.4592 L314.9432,93.9652 L333.3892,113.5442 L347.9852,99.7922 L343.3172,94.8372 Z M337.9682,70.1642 L332.7482,76.2642 L353.1842,93.7542 L358.4042,87.6532 L337.9682,70.1642 Z M357.3472,41.7302 L353.2722,48.1712 L368.5002,57.8042 L349.1182,54.7362 L343.0652,64.3052 L365.7972,78.6862 L369.8722,72.2452 L354.4872,62.5122 L374.0062,65.7102 L380.0792,56.1102 L357.3472,41.7302 Z M363.6602,27.3902 L360.3972,34.7262 L384.9742,45.6572 L388.2362,38.3212 L363.6602,27.3902 Z M388.6952,3.6962 L386.3482,11.4132 L387.2682,11.6932 C388.4722,12.0602 389.2182,12.5512 389.5082,13.1682 C389.7972,13.7842 389.7522,14.7182 389.3712,15.9692 C388.9192,17.4552 388.2982,18.3112 387.5082,18.5342 C386.8882,18.7072 385.6702,18.5172 383.8522,17.9642 L379.7112,16.7042 C377.8942,16.1512 376.7442,15.5882 376.2602,15.0162 C375.7762,14.4432 375.7582,13.4262 376.2032,11.9622 C376.5682,10.7592 377.0272,9.9702 377.5802,9.5972 C378.1332,9.2232 378.9272,9.1932 379.9662,9.5102 L380.7792,9.7582 L383.0852,2.1832 L382.2342,1.9242 C378.7902,0.8762 376.1512,0.8802 374.3222,1.9342 C372.4942,2.9882 371.0082,5.3932 369.8662,9.1452 L369.2852,11.0562 C368.1292,14.8562 368.1082,17.7442 369.2212,19.7202 C370.3352,21.6952 372.8382,23.2762 376.7322,24.4602 L381.9712,26.0542 C385.8892,27.2462 388.8592,27.3322 390.8852,26.3112 C392.9102,25.2902 394.5012,22.8802 395.6562,19.0802 L396.3662,16.7442 C397.4232,13.2752 397.4402,10.5472 396.4212,8.5612 C395.4002,6.5742 393.1802,5.0612 389.7582,4.0202 L388.6952,3.6962 Z" id="Fill-15" fill="#FEFEFE" mask="url(#mask-2)"></path>
            </g>
            <path d="M249.8118,227.1381 C247.8268,227.1891 245.8418,227.2421 243.8568,227.2891 C238.8078,227.4121 233.7588,227.5351 228.7088,227.6551 C223.9988,227.7661 219.2878,227.8691 214.5768,227.9841 C206.8858,228.1701 199.1968,228.3661 191.5068,228.5501 C185.2538,228.7001 178.9998,228.8401 172.7468,228.9871 C167.3388,229.1151 161.9308,229.2441 156.5228,229.3741 C151.1778,229.5021 145.8328,229.6321 140.4878,229.7621 L124.3908,230.1521 C123.3768,230.1761 122.3628,230.1931 121.3488,230.2341 C120.9288,230.2511 120.5798,230.1441 120.2278,229.9061 C115.2318,226.5211 112.2808,221.8291 111.2538,215.9051 C110.6648,212.4991 110.7428,209.0851 111.1938,205.6731 C111.9038,200.2991 113.4778,195.1551 115.3868,190.1031 C116.1328,188.1271 116.9328,186.1701 117.7088,184.2061 C117.7618,184.0731 117.8298,183.9451 117.9748,183.8401 C117.8758,184.2431 117.7818,184.6491 117.6768,185.0511 C116.6218,189.0811 115.7628,193.1521 115.2188,197.2841 C114.7438,200.8941 114.4938,204.5191 114.8028,208.1601 C115.0398,210.9571 115.5298,213.7001 116.8578,216.2111 C117.2898,217.0261 117.8148,217.8161 118.4208,218.5081 C120.7668,221.1871 124.2738,221.7671 127.3988,220.0681 C130.3048,218.4871 132.5368,215.0321 131.7708,210.7351 C130.9328,206.0351 130.1688,201.3211 129.4658,196.5981 C128.8208,192.2661 128.5098,187.9031 128.6588,183.5161 C128.9428,175.1031 131.3458,167.3471 135.8778,160.2541 C137.6608,157.4631 139.9538,155.1371 142.5168,153.0641 C146.4418,149.8901 150.8038,147.4561 155.4498,145.5161 C161.4748,143.0021 167.7438,141.4231 174.2258,140.6601 C178.6888,140.1361 183.1608,140.0451 187.6438,140.3261 C188.1068,140.3561 188.5718,140.3841 189.0338,140.4381 C192.7478,140.8781 196.2638,140.1211 199.6678,138.6881 C202.8438,137.3511 205.7328,135.5251 208.5028,133.4971 C211.9708,130.9591 215.1918,128.1251 218.3728,125.2431 C221.8488,122.0931 225.3078,118.9211 228.8138,115.8041 C231.0748,113.7941 233.4618,111.9381 236.0248,110.3211 C237.6358,109.3051 239.2958,108.3871 241.1158,107.7801 C242.0568,107.4661 242.8288,106.8721 243.5048,106.1551 C244.6818,104.9091 245.5278,103.4421 246.1958,101.8851 C247.0868,99.8081 247.9118,97.7021 248.7398,95.5991 C249.5908,93.4361 250.4378,91.2721 251.5458,89.2221 C252.4248,87.5971 253.4418,86.0711 254.7808,84.7811 C255.5608,84.0301 256.4178,83.3861 257.4628,82.8811 C257.5188,83.0621 257.5858,83.2071 257.6068,83.3581 C257.8678,85.1991 258.1138,87.0421 258.3778,88.8821 C258.6008,90.4311 258.9098,91.9621 259.4548,93.4371 C260.4388,96.1021 262.2168,98.0531 264.7388,99.3331 C265.3018,99.6191 265.8798,99.8921 266.4768,100.0961 C267.0578,100.2951 267.5498,100.6061 267.9588,101.0381 C269.0778,102.2191 270.2148,103.3861 271.2738,104.6191 C274.7278,108.6461 278.1308,112.7161 281.5918,116.7371 C284.2818,119.8611 287.0638,122.9031 290.0888,125.7111 C291.8578,127.3521 293.6898,128.9121 295.8568,130.0801 C295.8368,130.2511 295.8298,130.4161 295.7988,130.5761 C295.2258,133.5851 294.1818,136.3971 292.2718,138.8311 C290.3828,141.2381 287.9678,142.8051 284.9108,143.2671 C282.8268,143.5821 280.7738,143.4321 278.8048,142.6301 C277.6318,142.1521 276.4818,141.6171 275.3198,141.1121 C272.3788,139.8331 269.3248,139.3911 266.1478,139.8771 C265.0058,140.0521 264.3898,140.6651 264.2048,141.8091 C263.9968,143.0901 264.2238,144.3381 264.5238,145.5741 C265.1128,148.0061 265.9938,150.3421 267.0368,152.6071 C268.3618,155.4851 269.7768,158.3211 271.1528,161.1751 C271.2628,161.4051 271.3688,161.6251 271.6428,161.7201 C271.9648,161.8301 272.1048,162.1001 272.0688,162.4211 C272.0248,162.8031 272.1318,163.1301 272.3308,163.4381 C272.6458,163.9271 272.6628,164.4521 272.4288,164.9531 C272.1368,165.5831 271.8368,166.2231 271.4398,166.7871 C269.7308,169.2091 267.6388,171.2581 265.2268,172.9791 C265.1238,173.0531 265.0148,173.1181 264.9078,173.1861 C263.5538,174.0361 263.4708,174.0441 261.9778,173.4741 C261.7808,173.3991 261.5828,173.3281 261.3328,173.2381 C261.2568,173.3961 261.1728,173.5341 261.1208,173.6841 C260.3088,175.9891 260.0628,178.3291 260.6688,180.7261 C260.7578,181.0771 260.7508,181.0791 260.4278,181.2761 C259.5478,178.4871 259.9568,175.8061 260.9668,173.0791 C259.1278,172.3701 257.3248,171.6751 255.4648,170.9591 C255.3078,171.1821 255.1588,171.3781 255.0248,171.5851 C253.3728,174.1551 252.3188,176.9761 251.5258,179.9071 C251.3608,180.5181 251.2128,181.1351 251.0548,181.7481 C251.0088,181.9271 251.0028,182.1461 250.6348,182.1161 C251.0358,180.1251 251.6108,178.2001 252.3218,176.3151 C253.0388,174.4131 253.9578,172.6141 255.1378,170.9131 C254.9948,170.8351 254.9098,170.7731 254.8148,170.7391 C252.7468,169.9961 250.6768,169.2551 248.5248,168.7871 C247.9908,168.6711 247.4398,168.6261 246.8958,168.5651 C246.4168,168.5111 246.0538,168.6981 245.7388,169.0751 C244.6758,170.3461 243.7888,171.7311 242.9988,173.1821 C241.0818,176.7041 239.6648,180.4331 238.4578,184.2461 C237.0448,188.7071 235.9778,193.2481 235.3308,197.8831 C234.9728,200.4401 234.7588,203.0091 234.9028,205.5951 C235.0408,208.0981 235.7378,210.4631 236.8088,212.7111 C237.7068,214.5941 239.2028,215.9041 241.0378,216.8521 C242.9678,217.8501 245.0358,218.4491 247.1378,218.9371 C250.1058,219.6271 253.1168,220.0611 256.1318,220.4671 C257.1148,220.6001 258.0908,220.7841 259.0618,220.9851 C259.4078,221.0551 259.7488,221.2081 260.0558,221.3851 C260.7038,221.7591 260.7728,222.2701 260.2218,222.7631 C259.8968,223.0541 259.5128,223.3081 259.1148,223.4851 C257.2838,224.2951 255.4028,224.6701 253.3778,224.2891 C250.1278,223.6791 246.9378,222.8881 243.8988,221.5631 C241.3018,220.4311 238.9158,218.9731 236.8738,216.9851 C233.9858,214.1711 232.3018,210.7401 231.6218,206.7921 C231.0768,203.6341 231.2048,200.4771 231.6758,197.3251 C232.2098,193.7591 233.1328,190.2861 234.3638,186.9071 C235.8008,182.9571 237.3318,179.0401 238.8558,175.1231 C239.4698,173.5451 240.2388,172.0371 241.2738,170.6821 C242.4558,169.1351 243.9568,168.0591 245.8668,167.6041 C247.0478,167.3221 248.2478,167.2721 249.4578,167.3781 C251.6848,167.5721 253.8178,168.1651 255.9188,168.8951 C256.1168,168.9641 256.3158,169.0291 256.4818,169.0851 C256.8438,168.9821 256.9258,168.5461 257.3998,168.4781 C257.1958,168.7481 257.0498,168.9411 256.8608,169.1921 C258.4998,169.8941 260.1108,170.5851 261.7498,171.2871 C262.4438,170.1721 262.9558,168.9711 263.8058,167.9981 L263.9438,168.0801 C263.3148,169.1811 262.6848,170.2821 262.0498,171.3901 C262.6408,171.8881 263.2378,172.0101 263.8528,171.6621 C264.4578,171.3221 265.0568,170.9541 265.5928,170.5181 C266.9108,169.4451 268.0218,168.1701 269.0538,166.8241 C269.2318,166.5921 269.3118,166.3521 269.2938,166.0631 C269.2768,165.7681 269.2908,165.4711 269.2798,165.1761 C269.2458,164.2011 269.4038,163.2791 270.0538,162.4281 C269.7868,162.0071 269.5578,161.5511 269.2428,161.1671 C268.4288,160.1761 267.8328,159.0611 267.3008,157.9091 C264.4178,151.6631 262.2888,145.1751 261.0858,138.3961 C260.6018,135.6651 260.3368,132.9111 260.4178,130.1321 C260.4588,128.7131 260.6028,127.3071 260.8798,125.9151 C260.9418,125.6041 261.0068,125.2911 261.0298,124.9771 C261.1058,123.9081 260.6798,123.5921 259.7078,124.0061 C259.3218,124.1711 258.9418,124.3721 258.5988,124.6141 C257.7718,125.1991 256.9338,125.7781 256.1588,126.4291 C253.2608,128.8611 250.3958,131.3321 247.4998,133.7671 C240.8868,139.3301 233.8848,144.3481 226.4188,148.7061 C222.0808,151.2391 217.5488,153.3481 212.6858,154.6881 C210.0338,155.4191 207.3368,155.9391 204.6278,156.3951 C196.4408,157.7741 188.7248,160.4801 181.5088,164.5861 C177.4228,166.9111 173.7098,169.7211 170.5718,173.2471 C166.7478,177.5461 164.2298,182.4921 163.1988,188.1711 C162.6668,191.1011 162.5668,194.0491 162.8278,197.0111 C163.3228,202.6411 164.9258,207.9471 167.5128,212.9631 C167.6238,213.1781 167.7108,213.4501 167.6868,213.6821 C167.6038,214.4771 167.5508,215.2901 167.3328,216.0531 C166.6638,218.3861 164.8728,219.4071 162.4998,218.8791 C161.3918,218.6331 160.3878,218.1461 159.4458,217.5261 C157.5458,216.2731 155.9938,214.6621 154.7608,212.7681 C152.5248,209.3321 150.9378,205.6201 150.2478,201.5581 C149.8518,199.2331 149.9088,196.8871 149.9388,194.5391 C150.0038,189.6421 150.8868,184.8761 152.1528,180.1681 C152.6468,178.3321 153.1688,176.5041 153.6608,174.6681 C154.3908,171.9401 155.6018,169.4001 156.6838,166.8081 C157.5698,164.6831 158.4208,162.5431 159.2348,160.3901 C159.5318,159.6051 159.6998,158.7671 159.8808,157.9441 C159.9508,157.6231 159.9378,157.2671 159.8808,156.9411 C159.8108,156.5361 159.5248,156.3701 159.1278,156.4971 C158.7908,156.6041 158.4498,156.7521 158.1618,156.9551 C156.6718,158.0111 155.2908,159.1921 154.2098,160.6771 C152.2898,163.3191 150.7578,166.1911 149.3518,169.1301 C147.5788,172.8361 146.0948,176.6511 145.1768,180.6681 C144.6298,183.0631 144.3288,185.4951 144.1138,187.9391 C143.8608,190.8031 143.7668,193.6761 143.7928,196.5521 C143.8208,199.5761 143.9078,202.5991 144.3578,205.5931 C145.2738,211.6901 147.8058,216.9661 152.4558,221.1141 C155.9248,224.2071 160.0198,226.0221 164.5788,226.7911 C166.0138,227.0341 167.4708,227.1721 168.9238,227.2631 C172.8258,227.5061 176.7288,227.7421 180.6348,227.8981 C184.4798,228.0511 188.3278,227.9941 192.1658,227.6721 C196.7288,227.2881 201.2258,226.5671 205.5268,224.9091 C207.5678,224.1231 209.4958,223.1281 211.2588,221.8251 C213.6348,220.0681 215.4528,217.8601 216.7108,215.1821 C218.3558,211.6831 219.2938,207.9981 219.6998,204.1631 C220.0808,200.5521 219.9258,196.9461 219.6448,193.3381 C219.5628,192.2851 219.5048,191.2301 219.4718,190.1741 C219.4598,189.7991 219.5118,189.4091 219.6178,189.0501 C219.6728,188.8631 219.8828,188.6541 220.0698,188.5901 C220.3288,188.5021 220.4988,188.7481 220.5728,188.9691 C220.7608,189.5281 220.9858,190.0871 221.0708,190.6651 C221.3558,192.6081 221.6718,194.5531 221.8218,196.5081 C222.2178,201.6701 222.5208,206.8401 222.8848,212.0041 C223.0568,214.4281 223.3188,216.8451 223.4758,219.2701 C223.5698,220.7271 224.2798,221.7641 225.4018,222.5971 C226.6798,223.5451 228.1328,224.1041 229.6498,224.5211 C231.6138,225.0601 233.6208,225.3691 235.6438,225.5181 C238.5318,225.7311 241.4248,225.8461 244.3128,226.0551 C245.7428,226.1591 247.1658,226.3631 248.5888,226.5541 C249.0338,226.6141 249.4788,226.7471 249.8118,227.1381" id="Fill-18" fill="#21A5A2"></path>
            <path d="M275.597,160.2606 C276.387,160.3746 277.188,160.4396 277.965,160.6126 C279.497,160.9526 280.847,161.6616 281.951,162.7986 C282.054,162.9046 282.154,163.0126 282.245,163.1286 C282.281,163.1736 282.287,163.2406 282.307,163.2966 C282.046,163.4986 281.935,163.2756 281.78,163.1456 C281.201,162.6596 280.652,162.1276 280.023,161.7166 C278.856,160.9526 277.524,160.6306 276.152,160.4576 C275.956,160.4336 275.714,160.5206 275.6,160.2606 L275.597,160.2606 Z" id="Fill-20" fill="#21A5A2"></path>
            <path d="M275.5999,160.2601 C275.2759,160.2891 274.9519,160.3181 274.6259,160.3471 C274.6249,160.3201 274.6229,160.2911 274.6219,160.2631 C274.9459,160.2631 275.2689,160.2631 275.5939,160.2621 C275.5969,160.2601 275.5999,160.2601 275.5999,160.2601" id="Fill-22" fill="#0065A8"></path>
        </g>
    </g>
</svg>